<svg xmlns="http://www.w3.org/2000/svg" width="212" height="50" viewBox="0 0 212 50">
    <g fill="#FFF" fill-rule="evenodd">
        <path d="M93.84 37.636c-.153.214-.512.193-.703.193-.161 0-1.532-.126-1.666-.126h-3.027c-1.282 1.298-2.616 3.034-2.597 4.43.039 1.948 2.304 2.308 3.174 2.308 1.482-.021 2.507-.504 4.005-1.35 0 0 .104.064.173.064l-.02.215c-1.778 1.493-3.608 2.326-5.158 2.326-1.212 0-3.643-.57-3.683-2.701-.032-1.735 1.65-3.458 3.325-5.197l-5.54.278c-.189.015-.44.015-.44-.247 0-.226.433-1.18.83-1.18h6.129c.362-.38.69-.767 1.01-.996.372 0 .471.085.524.085-.185.244-.463.556-.765.875 1.063.144 3.338.112 4.149.485.119.067.19.325.259.523l.02.015z"/>
        <path d="M100.837 44.26c-.328.31-2.273 1.626-3.024 1.626-.573 0-.832-.637-.842-.908l-.029-1.525c0-.15-.11-.233-.249-.233-.582 0-2.585 2.361-3.555 2.342-.64 0-.692-.846-.692-1.142 0-.337-.036-.596.363-1.13 1.38-1.82 2.711-3.633 4.236-5.39.108-.133.47-.372.63-.372.361 0 .297.2.297.386 0 .144-.117.733-.25 1.023-.289.6-.603 1.166-1.44 1.978-.32.296-2.522 1.74-2.515 2.538.012.142.152.873.611.891.323 0 .902-.484 1.35-.842.365-.3.833-.668 1.264-.946.198-.128.59-.326.962-.255.37.255.32.631.37.934.058.463.047.996.058 1.48.053.074.164.187.21.251.612.057 1.325-.375 1.967-.93h.23s.07.161.02.225h.028z"/>
        <path d="M102.54 42.334c-.492 0-1.54.612-1.674 1.276.07 0 2.096-.21 2.085-.93 0-.202-.12-.346-.41-.346zm2.996 1.721c-1.335.846-2.526 1.57-3.718 1.57-.73 0-2.06-.293-2.091-1.364-.039-1.443 2.892-2.464 3.523-2.49.518 0 .785.298.791.635.02 1.26-3.145 1.5-3.204 1.53.22.699 1.261.764 1.774.764.838 0 1.942-.404 2.925-.86v.228-.013zM119.034 45.947c-.652.093-2.07.258-2.484.258-1.635 0-3.82-.428-4.597-1.711 0-.06.04-.154.028-.216h.22c.993 1.309 3.01 1.499 4.236 1.499 2.156 0 5.336-.652 7.082-3.371.267-.445.455-.985.436-1.483-.006-1.873-2.083-2.28-3.062-2.28-3.005-.017-7.209 2.34-9.771 5.502-.369.447-1.997 5.315-3.305 5.315-.326 0-.872-.249-.883-.632-.008-.84 3.716-4.805 3.808-4.95.462-.847.888-1.929 1.311-2.905l-.03-.087c-.251.162-.7.3-.813.3-.39 0-1.433-.6-1.638-1.045.306.033.456.018.608.018 1.143 0 2.784-1.425 3.504-2.6.036 0 .19.084.237.154.12.378.298 1.31.298 1.45.004.682-1.025.898-1.543 1.47-.145.174-.28.554-.383.776-.24.591-.684 1.272-.705 1.715 2.787-2.773 7.084-5.565 10.417-5.565 1.389 0 3.543.699 3.575 2.756.056 2.958-4.566 5.388-6.546 5.632M131.738 43.646c-.441.66-2.563 1.978-3.646 1.978-.259 0-1.401-.337-1.42-.835 0-.268 1.05-.836 1.18-1.048-.098-.288-1.105-.65-1.14-.65-.164 0-.6.376-.843.504 0 0-.098-.077-.17-.093.133-.162.397-.391.598-.588.033-.044-.105-.157-.097-.307.097-.213 1.14-1.245 1.543-1.245.166 0 .188.078.259.137l-.02.196c0 .164-.149.31-.361.524.167.21 1.284.514 1.29.906.011.56-.87.542-.878 1.021.008.555.997.555 1.03.555.752 0 1.661-.573 2.343-1.034h.312l.02-.021z"/>
        <path d="M133.642 40.736c-.274 0-.962-.223-.975-.551.02-.323.72-.68.791-.698.155 0 .898.527 1.336.719-.222.407-.851.53-1.152.53m-1.863 4.887c-.845 0-1.286-.374-1.305-1.102 0-.144.03-.498.122-.733.065-.089 1.836-1.815 2.166-1.804.15 0 .215.07.286.07l.008.212c-.561.49-1.26 1.168-1.247 1.688.02.652.68.747.929.747.841 0 1.559-.529 2.324-.989l.1.076v.235c-.72.532-2.294 1.6-3.383 1.6"/>
        <path d="M143.087 44c-.978.684-2.209 1.624-3.188 1.624-.855 0-1.664-.552-1.292-1.957 0 0 .035-.022-.03-.089-1.145.977-2.285 2.046-3.317 2.046-.732 0-1.3-.432-1.317-1.136-.037-1.754 3.35-2.515 3.983-2.503.142 0 .502.07.713.058 0 .064.064.221.064.29-.037.062-.096.144-.26.144-.155 0-.346-.072-.48-.072-.595 0-2.54.638-2.52 1.65.007.536.545.536.709.517.825 0 2.102-.886 2.683-1.593.473-.608.7-1.446 1.083-2.145.153-.296 2.078-3.307 2.669-3.333.232 0 .306.532.306.557.05 2.384-3.393 3.395-3.358 5.376.011.91.68 1.267 1.295 1.267.87 0 1.458-.678 2.15-.989l.07.076.01.235.027-.023z"/>
        <path d="M144.672 42.334c-.479 0-1.54.612-1.671 1.276.07 0 2.103-.21 2.082-.93 0-.202-.116-.346-.41-.346zm2.991 1.721c-1.33.846-2.516 1.57-3.711 1.57-.721 0-2.048-.293-2.093-1.364-.03-1.443 2.894-2.464 3.523-2.49.524 0 .783.298.793.635.02 1.26-3.145 1.5-3.203 1.53.209.699 1.263.764 1.76.764.853 0 1.956-.404 2.931-.86v.228-.013zM156.26 43.401c-.424 1.565-2.335 2.222-3.516 2.245-.512 0-1.673-.216-1.692-1.106-.018-1.181 1.652-2.102 2.643-2.322.074-.047.119-.111.273-.111h.498s-.058.172-.123.227c-.318.104-1.927.372-1.942 1.406.021.884 1.324.96 1.574.96.553 0 1.432-.238 1.942-1.264-.502-.05-1.01-.179-1.558-.295.17-.376.388-.825.623-1.157.745.316 1.47.804 2.34.804.125 0 .498-.031.86-.107-.241.496-1.408.62-1.923.72"/>
        <path d="M160.121 42.706c.143.193.703.146.943.146.158 0 .824-.05 1.613-.05-.65.729-2.223.456-3.153.7-.164.029-.523.467-.592.806-.051.247.08 1.111.07 1.66 0 .15-.778 3.447-1.539 3.447-.474 0-.403-.745-.403-.88-.013-.596.15-1.998.492-2.825.219-.502.93-1.837.93-1.95 0-.128-.098-.23-.224-.358a4.915 4.915 0 0 1-1.182-.2c0-.06.06-.223.135-.257.091-.111.99-.54 1.121-.54.153 0 .713.19.879.19.128 0 2.117-3.56 2.754-4.681.132-.211.545-.387.61-.413.339 0 .302.373.312.478.019 1.579-1.02 2.806-2.766 4.727M185.292 43.257c-.649.915-2.03 2.193-2.988 2.193-1 0-1.104-1.48-1.297-1.932-.136-.393-.27-1.08-.455-1.628-.423-1.316-.434-2.316-1.145-3.281-.35-.5-.879-.534-1.19-.534-2.009 0-4.386 2.388-5.812 3.242 1.889.286 2.817.235 4.03.216.139 0 1.554.02 2.344-.08.211-.012.71-.16.867-.15h.205l-.024.138c.012.077-.11.228-.17.277-1.058.71-3.156.877-4.708.89-.139 0-1.757-.036-2.488-.085-.342-.015-1.124-.175-1.285-.175-.051 0-3.572 3.657-5.077 3.657-.3 0-.599-.187-.609-.395 0-.437 3.556-2.776 4.568-3.542-.18-.128-.492-.23-.73-.342l-.034-.234c.272-.232 1.06-.756 1.242-.756.13 0 .8.38.942.38.04 0 6.407-4.466 7.942-4.466 2.352 0 2.799 7.741 3.898 7.741.56 0 1.135-.924 1.77-1.3.067.065.159.103.204.144v.022z"/>
        <path d="M187.962 42.706c.139.193.71.146.93.146.153 0 .82-.05 1.619-.05-.65.729-2.225.456-3.165.7-.15.029-.508.467-.564.806-.063.247.056 1.111.056 1.66 0 .15-.782 3.447-1.533 3.447-.478 0-.4-.745-.407-.88-.015-.596.138-1.998.484-2.825.224-.502.936-1.837.925-1.95 0-.128-.089-.23-.21-.358a4.748 4.748 0 0 1-1.178-.2c-.015-.06.056-.223.117-.257.089-.111 1-.54 1.13-.54.162 0 .723.19.875.19.127 0 2.118-3.56 2.762-4.681.127-.211.539-.387.611-.413.34 0 .296.373.296.478.03 1.579-1.02 2.806-2.748 4.727"/>
        <path d="M195.52 43.646c-.414.66-2.464 1.978-3.516 1.978-.252 0-1.351-.337-1.358-.835 0-.268 1.012-.836 1.136-1.048-.088-.288-1.057-.65-1.102-.65-.16 0-.592.376-.82.504 0 0-.089-.077-.155-.093.105-.162.378-.391.587-.588.021-.044-.119-.157-.11-.307.1-.213 1.087-1.245 1.481-1.245.17 0 .193.078.258.137l-.015.196c0 .164-.154.31-.355.524.167.21 1.243.514 1.256.906 0 .56-.843.542-.856 1.021.013.555.978.555.985.555.74 0 1.625-.573 2.273-1.034h.291l.02-.021z"/>
        <path d="M197.59 40.736c-.267 0-.962-.223-.97-.551.02-.323.722-.68.793-.698.163 0 .888.527 1.33.719-.225.407-.85.53-1.153.53m-1.87 4.887c-.844 0-1.283-.374-1.29-1.102 0-.144.036-.498.115-.733.062-.089 1.834-1.815 2.165-1.804.156 0 .224.07.293.07v.212c-.562.49-1.255 1.168-1.245 1.688.016.652.669.747.925.747.85 0 1.573-.529 2.334-.989l.089.076.003.235c-.713.532-2.29 1.6-3.39 1.6"/>
        <path d="M199.807 45.624c-.504 0-1.672-.27-1.686-1.262-.037-1.605 3.348-2.318 4.017-2.318.161 0 .31.01.49.127l.023.35c-.185.115-.413.133-.555.133-.157 0-.701-.06-.84-.047-.482 0-1.782.194-1.756 1.125 0 .823.992.97 1.335.97.14 0 .433-.047.59-.078.73-.216 2.044-.911 2.206-.911h.32v.224c-.65.455-2.936 1.687-4.144 1.687"/>
        <path d="M207.447 43.034c-.014-.354-.302-.427-.674-.427-.598 0-2.43.533-2.411 1.507.01.261.352.492.608.492.228 0 2.482-.797 2.477-1.562v-.01zm3.916.775c-.133.498-2.527 1.772-3.338 1.753-.42 0-.833-.174-.862-.548-.008-.459.49-.735.8-1.226v-.155c-.076-.07-.076-.102-.208-.115-.303 0-2.814 2.106-4.048 2.106-.57 0-1.038-.337-1.038-.853-.04-1.66 3.14-2.492 3.937-2.47.138 0 .549.047.81.127.265-.296.12-.631.62-.631.658 0 .29.883.338 1.135 0 0 .029.048.103.102.832.433.409 1.049.76 1.474.79-.067 1.212-.473 1.993-.75l.133.03v.021zM30.388 32.905c-8.492 7.024-19.609 7.414-24.832.885-5.239-6.54-2.594-17.53 5.89-24.552 8.488-7.023 19.59-7.417 24.828-.882 5.226 6.534 2.594 17.528-5.886 24.549m6.346-26.036C30.277-1.216 17.69-1.671 8.61 5.839-.46 13.347-2.575 25.983 3.892 34.055c6.46 8.075 19.055 8.54 28.129 1.028 9.072-7.51 11.18-20.144 4.713-28.214"/>
        <path d="M32.78 15.328c2.182-3.068.98-10.181-.392-8.028-1.181 1.87-7.177 5.874-12.468 9.091 0 0 1.296-3.423 2.395-6.185 1.115-2.757-3.863-1.603-6.746-.116-.27.142-2.562 1.589-2.752 2.5 1.2-.217 1.9-.296 1.761.025-.09.214-.181.44-.281.677-.882 2.12-2.072 5-3.268 7.864-2.759 7.797-1.378 11.32-1.378 11.32l7.387.312s-1.853-.798-1.068-5.087c.769-4.226 1.908-4.861 2.153-4.956.43 1.805 3.132 9.114 9.282 13.365 7.448 5.144 12.584 2.575 14.576.52 1.995-2.057 1.995-6.173 1.995-6.173s-5.67 4.628-11.435.64c-3.977-2.753-9.49-7.688-11.605-9.545.36-.154 8.122-.995 11.844-6.224"/>
        <path d="M30.388 32.905c-8.492 7.024-19.609 7.414-24.832.885-5.239-6.54-2.594-17.53 5.89-24.552 8.488-7.023 19.59-7.417 24.828-.882 5.226 6.534 2.594 17.528-5.886 24.549m6.346-26.036C30.277-1.216 17.69-1.671 8.61 5.839-.46 13.347-2.575 25.983 3.892 34.055c6.46 8.075 19.055 8.54 28.129 1.028 9.072-7.51 11.18-20.144 4.713-28.214"/>
        <path d="M32.78 15.328c2.182-3.068.98-10.181-.392-8.028-1.181 1.87-7.177 5.874-12.468 9.091 0 0 1.296-3.423 2.395-6.185 1.115-2.757-3.863-1.603-6.746-.116-.27.142-2.562 1.589-2.752 2.5 1.2-.217 1.9-.296 1.761.025-.09.214-.181.44-.281.677-.882 2.12-2.072 5-3.268 7.864-2.759 7.797-1.378 11.32-1.378 11.32l7.387.312s-1.853-.798-1.068-5.087c.769-4.226 1.908-4.861 2.153-4.956.43 1.805 3.132 9.114 9.282 13.365 7.448 5.144 12.584 2.575 14.576.52 1.995-2.057 1.995-6.173 1.995-6.173s-5.67 4.628-11.435.64c-3.977-2.753-9.49-7.688-11.605-9.545.36-.154 8.122-.995 11.844-6.224M50.974 13.225h4.315l-1.592 7.733h.052l5.935-7.733h3.398l-5.56 7.22 5.085 9.06h-4.896l-4.102-7.724h-.042l-1.496 7.725h-4.312z"/>
        <path d="M70.397 20.65c0-.579-.338-.92-.891-.92-1.4 0-2.33 2.023-2.52 3.196 2.03.056 3.411-.675 3.411-2.276zm3.405 7.772c-2.111.768-4.193 1.354-6.326 1.354-2.467 0-5.099-1.242-5.099-4.075 0-3.529 3.044-8.672 8.624-8.672 1.52 0 3.283.835 3.283 2.731 0 3.534-4.535 5.696-7.59 5.604.022 1.303 1 1.844 2.193 1.844 1.62 0 4.084-.986 5.539-1.773l-.624 2.987zM80.57 22.456h.272c.893-2.065 3.173-5.426 5.647-5.426 1.52 0 2.413 1.128 2.413 2.546 0 .59-.15 1.17-.26 1.76L87 29.505h-4.284l1.5-7.652c.019-.16.112-.434.112-.612 0-.138-.04-.365-.252-.365-.768 0-3.403 3.942-3.836 4.824l-.748 3.806h-4.318L77.587 17.3h4.256l-1.273 5.156zM92.366 29.506l-2.302-12.207h4.395l1.343 7.144 4.793-7.144h3.277L92.709 33.847h-4.457zM110.78 19.938c-.39-.224-.894-.403-1.38-.403-2.588 0-3.6 4.745-3.6 5.899 0 .307.112.695.497.695 1.178 0 3.28-3.557 4.24-4.95l.244-1.241zm-.6 4.41h-.268c-.906 2.07-3.166 5.428-5.652 5.428-1.744 0-2.764-1.593-2.764-3.22 0-3.938 3.837-9.46 8.065-9.46.998 0 1.691.204 2.013.204h4.031l-2.411 12.207h-4.273l1.26-5.16zM129.835 22.865l-1.052-5.676h-.042l-2.99 5.676h4.084zm-2.001-9.64h4.274l3.115 16.282h-4.117l-.779-4.073h-5.967l-2.156 4.073h-3.061l8.69-16.283zM139.518 13.151h4.303l-.507 2.407h-4.316l.52-2.407zm-.876 4.148h4.31l-2.41 12.207h-4.326l2.426-12.207zM148.08 22.456h.264c.906-2.065 3.173-5.426 5.655-5.426.484 0 .885.131 1.099.246l-1.52 3.783c-.295-.15-.618-.292-.945-.292-2.172 0-4.043 3.513-4.896 4.934l-.754 3.806h-4.316l2.416-12.207h4.265l-1.268 5.156zM156.049 17.3h3.774l.267 7.746h.056l3.783-7.746h3.605l.33 7.767h.037l3.827-7.767h3.015l-6.05 12.206h-4.114l-.303-7.358h-.046l-3.6 7.358h-4.113zM182.135 19.938c-.403-.224-.899-.403-1.383-.403-2.595 0-3.596 4.745-3.596 5.899 0 .307.108.695.49.695 1.19 0 3.296-3.557 4.248-4.95l.241-1.241zm-.595 4.41h-.273c-.898 2.07-3.171 5.428-5.652 5.428-1.74 0-2.764-1.593-2.764-3.22 0-3.938 3.843-9.46 8.047-9.46 1.012 0 1.702.204 2.027.204h4.03l-2.41 12.207h-4.284l1.28-5.16zM190.732 29.506l-2.307-12.207h4.415l1.337 7.144 4.792-7.144h3.26l-11.156 16.548h-4.443zM210.849 20.026c-.87-.311-1.781-.563-2.703-.563-.713 0-1.691.222-1.691 1.127 0 1.44 3.724 2.477 3.724 5.13 0 1.626-1.07 4.056-5.656 4.056-1.514 0-2.927-.295-4.418-.676l.55-2.857c1.081.472 2.705 1.103 3.868 1.103.58 0 1.34-.381 1.34-1.17 0-1.674-3.457-2.701-3.457-5.367 0-1.446.984-3.78 5.577-3.78 1.127 0 2.338.226 3.379.359l-.513 2.638z"/>
        <path d="M139.518 13.151h4.303l-.507 2.407h-4.316l.52-2.407zm-.876 4.148h4.31l-2.41 12.207h-4.326l2.426-12.207zM148.08 22.456h.264c.906-2.065 3.173-5.426 5.655-5.426.484 0 .885.131 1.099.246l-1.52 3.783c-.295-.15-.618-.292-.945-.292-2.172 0-4.043 3.513-4.896 4.934l-.754 3.806h-4.316l2.416-12.207h4.265l-1.268 5.156zM156.049 17.3h3.774l.267 7.746h.056l3.783-7.746h3.605l.33 7.767h.037l3.827-7.767h3.015l-6.05 12.206h-4.114l-.303-7.358h-.046l-3.6 7.358h-4.113zM182.135 19.938c-.403-.224-.899-.403-1.383-.403-2.595 0-3.596 4.745-3.596 5.899 0 .307.108.695.49.695 1.19 0 3.296-3.557 4.248-4.95l.241-1.241zm-.595 4.41h-.273c-.898 2.07-3.171 5.428-5.652 5.428-1.74 0-2.764-1.593-2.764-3.22 0-3.938 3.843-9.46 8.047-9.46 1.012 0 1.702.204 2.027.204h4.03l-2.41 12.207h-4.284l1.28-5.16zM190.732 29.506l-2.307-12.207h4.415l1.337 7.144 4.792-7.144h3.26l-11.156 16.548h-4.443zM210.849 20.026c-.87-.311-1.781-.563-2.703-.563-.713 0-1.691.222-1.691 1.127 0 1.44 3.724 2.477 3.724 5.13 0 1.626-1.07 4.056-5.656 4.056-1.514 0-2.927-.295-4.418-.676l.55-2.857c1.081.472 2.705 1.103 3.868 1.103.58 0 1.34-.381 1.34-1.17 0-1.674-3.457-2.701-3.457-5.367 0-1.446.984-3.78 5.577-3.78 1.127 0 2.338.226 3.379.359l-.513 2.638z"/>
        <path d="M139.518 13.151h4.303l-.507 2.407h-4.316l.52-2.407zm-.876 4.148h4.31l-2.41 12.207h-4.326l2.426-12.207zM148.08 22.456h.264c.906-2.065 3.173-5.426 5.655-5.426.484 0 .885.131 1.099.246l-1.52 3.783c-.295-.15-.618-.292-.945-.292-2.172 0-4.043 3.513-4.896 4.934l-.754 3.806h-4.316l2.416-12.207h4.265l-1.268 5.156zM156.049 17.3h3.774l.267 7.746h.056l3.783-7.746h3.605l.33 7.767h.037l3.827-7.767h3.015l-6.05 12.206h-4.114l-.303-7.358h-.046l-3.6 7.358h-4.113zM182.135 19.938c-.403-.224-.899-.403-1.383-.403-2.595 0-3.596 4.745-3.596 5.899 0 .307.108.695.49.695 1.19 0 3.296-3.557 4.248-4.95l.241-1.241zm-.595 4.41h-.273c-.898 2.07-3.171 5.428-5.652 5.428-1.74 0-2.764-1.593-2.764-3.22 0-3.938 3.843-9.46 8.047-9.46 1.012 0 1.702.204 2.027.204h4.03l-2.41 12.207h-4.284l1.28-5.16zM190.732 29.506l-2.307-12.207h4.415l1.337 7.144 4.792-7.144h3.26l-11.156 16.548h-4.443zM210.849 20.026c-.87-.311-1.781-.563-2.703-.563-.713 0-1.691.222-1.691 1.127 0 1.44 3.724 2.477 3.724 5.13 0 1.626-1.07 4.056-5.656 4.056-1.514 0-2.927-.295-4.418-.676l.55-2.857c1.081.472 2.705 1.103 3.868 1.103.58 0 1.34-.381 1.34-1.17 0-1.674-3.457-2.701-3.457-5.367 0-1.446.984-3.78 5.577-3.78 1.127 0 2.338.226 3.379.359l-.513 2.638z"/>
        <path d="M139.518 13.151h4.303l-.507 2.407h-4.316l.52-2.407zm-.876 4.148h4.31l-2.41 12.207h-4.326l2.426-12.207zM148.08 22.456h.264c.906-2.065 3.173-5.426 5.655-5.426.484 0 .885.131 1.099.246l-1.52 3.783c-.295-.15-.618-.292-.945-.292-2.172 0-4.043 3.513-4.896 4.934l-.754 3.806h-4.316l2.416-12.207h4.265l-1.268 5.156zM156.049 17.3h3.774l.267 7.746h.056l3.783-7.746h3.605l.33 7.767h.037l3.827-7.767h3.015l-6.05 12.206h-4.114l-.303-7.358h-.046l-3.6 7.358h-4.113zM182.135 19.938c-.403-.224-.899-.403-1.383-.403-2.595 0-3.596 4.745-3.596 5.899 0 .307.108.695.49.695 1.19 0 3.296-3.557 4.248-4.95l.241-1.241zm-.595 4.41h-.273c-.898 2.07-3.171 5.428-5.652 5.428-1.74 0-2.764-1.593-2.764-3.22 0-3.938 3.843-9.46 8.047-9.46 1.012 0 1.702.204 2.027.204h4.03l-2.41 12.207h-4.284l1.28-5.16zM190.732 29.506l-2.307-12.207h4.415l1.337 7.144 4.792-7.144h3.26l-11.156 16.548h-4.443zM210.849 20.026c-.87-.311-1.781-.563-2.703-.563-.713 0-1.691.222-1.691 1.127 0 1.44 3.724 2.477 3.724 5.13 0 1.626-1.07 4.056-5.656 4.056-1.514 0-2.927-.295-4.418-.676l.55-2.857c1.081.472 2.705 1.103 3.868 1.103.58 0 1.34-.381 1.34-1.17 0-1.674-3.457-2.701-3.457-5.367 0-1.446.984-3.78 5.577-3.78 1.127 0 2.338.226 3.379.359l-.513 2.638zM50.974 13.225h4.315l-1.592 7.733h.052l5.935-7.733h3.398l-5.56 7.22 5.085 9.06h-4.896l-4.102-7.724h-.042l-1.496 7.725h-4.312z"/>
        <path d="M70.397 20.65c0-.579-.338-.92-.891-.92-1.4 0-2.33 2.023-2.52 3.196 2.03.056 3.411-.675 3.411-2.276zm3.405 7.772c-2.111.768-4.193 1.354-6.326 1.354-2.467 0-5.099-1.242-5.099-4.075 0-3.529 3.044-8.672 8.624-8.672 1.52 0 3.283.835 3.283 2.731 0 3.534-4.535 5.696-7.59 5.604.022 1.303 1 1.844 2.193 1.844 1.62 0 4.084-.986 5.539-1.773l-.624 2.987zM80.57 22.456h.272c.893-2.065 3.173-5.426 5.647-5.426 1.52 0 2.413 1.128 2.413 2.546 0 .59-.15 1.17-.26 1.76L87 29.505h-4.284l1.5-7.652c.019-.16.112-.434.112-.612 0-.138-.04-.365-.252-.365-.768 0-3.403 3.942-3.836 4.824l-.748 3.806h-4.318L77.587 17.3h4.256l-1.273 5.156zM92.366 29.506l-2.302-12.207h4.395l1.343 7.144 4.793-7.144h3.277L92.709 33.847h-4.457zM110.78 19.938c-.39-.224-.894-.403-1.38-.403-2.588 0-3.6 4.745-3.6 5.899 0 .307.112.695.497.695 1.178 0 3.28-3.557 4.24-4.95l.244-1.241zm-.6 4.41h-.268c-.906 2.07-3.166 5.428-5.652 5.428-1.744 0-2.764-1.593-2.764-3.22 0-3.938 3.837-9.46 8.065-9.46.998 0 1.691.204 2.013.204h4.031l-2.411 12.207h-4.273l1.26-5.16zM129.835 22.865l-1.052-5.676h-.042l-2.99 5.676h4.084zm-2.001-9.64h4.274l3.115 16.282h-4.117l-.779-4.073h-5.967l-2.156 4.073h-3.061l8.69-16.283zM139.518 13.151h4.303l-.507 2.407h-4.316l.52-2.407zm-.876 4.148h4.31l-2.41 12.207h-4.326l2.426-12.207zM148.08 22.456h.264c.906-2.065 3.173-5.426 5.655-5.426.484 0 .885.131 1.099.246l-1.52 3.783c-.295-.15-.618-.292-.945-.292-2.172 0-4.043 3.513-4.896 4.934l-.754 3.806h-4.316l2.416-12.207h4.265l-1.268 5.156zM156.049 17.3h3.774l.267 7.746h.056l3.783-7.746h3.605l.33 7.767h.037l3.827-7.767h3.015l-6.05 12.206h-4.114l-.303-7.358h-.046l-3.6 7.358h-4.113zM182.135 19.938c-.403-.224-.899-.403-1.383-.403-2.595 0-3.596 4.745-3.596 5.899 0 .307.108.695.49.695 1.19 0 3.296-3.557 4.248-4.95l.241-1.241zm-.595 4.41h-.273c-.898 2.07-3.171 5.428-5.652 5.428-1.74 0-2.764-1.593-2.764-3.22 0-3.938 3.843-9.46 8.047-9.46 1.012 0 1.702.204 2.027.204h4.03l-2.41 12.207h-4.284l1.28-5.16zM190.732 29.506l-2.307-12.207h4.415l1.337 7.144 4.792-7.144h3.26l-11.156 16.548h-4.443zM210.849 20.026c-.87-.311-1.781-.563-2.703-.563-.713 0-1.691.222-1.691 1.127 0 1.44 3.724 2.477 3.724 5.13 0 1.626-1.07 4.056-5.656 4.056-1.514 0-2.927-.295-4.418-.676l.55-2.857c1.081.472 2.705 1.103 3.868 1.103.58 0 1.34-.381 1.34-1.17 0-1.674-3.457-2.701-3.457-5.367 0-1.446.984-3.78 5.577-3.78 1.127 0 2.338.226 3.379.359l-.513 2.638z"/>
        <path d="M139.518 13.151h4.303l-.507 2.407h-4.316l.52-2.407zm-.876 4.148h4.31l-2.41 12.207h-4.326l2.426-12.207zM148.08 22.456h.264c.906-2.065 3.173-5.426 5.655-5.426.484 0 .885.131 1.099.246l-1.52 3.783c-.295-.15-.618-.292-.945-.292-2.172 0-4.043 3.513-4.896 4.934l-.754 3.806h-4.316l2.416-12.207h4.265l-1.268 5.156zM156.049 17.3h3.774l.267 7.746h.056l3.783-7.746h3.605l.33 7.767h.037l3.827-7.767h3.015l-6.05 12.206h-4.114l-.303-7.358h-.046l-3.6 7.358h-4.113zM182.135 19.938c-.403-.224-.899-.403-1.383-.403-2.595 0-3.596 4.745-3.596 5.899 0 .307.108.695.49.695 1.19 0 3.296-3.557 4.248-4.95l.241-1.241zm-.595 4.41h-.273c-.898 2.07-3.171 5.428-5.652 5.428-1.74 0-2.764-1.593-2.764-3.22 0-3.938 3.843-9.46 8.047-9.46 1.012 0 1.702.204 2.027.204h4.03l-2.41 12.207h-4.284l1.28-5.16zM190.732 29.506l-2.307-12.207h4.415l1.337 7.144 4.792-7.144h3.26l-11.156 16.548h-4.443zM210.849 20.026c-.87-.311-1.781-.563-2.703-.563-.713 0-1.691.222-1.691 1.127 0 1.44 3.724 2.477 3.724 5.13 0 1.626-1.07 4.056-5.656 4.056-1.514 0-2.927-.295-4.418-.676l.55-2.857c1.081.472 2.705 1.103 3.868 1.103.58 0 1.34-.381 1.34-1.17 0-1.674-3.457-2.701-3.457-5.367 0-1.446.984-3.78 5.577-3.78 1.127 0 2.338.226 3.379.359l-.513 2.638z"/>
        <path d="M139.518 13.151h4.303l-.507 2.407h-4.316l.52-2.407zm-.876 4.148h4.31l-2.41 12.207h-4.326l2.426-12.207zM148.08 22.456h.264c.906-2.065 3.173-5.426 5.655-5.426.484 0 .885.131 1.099.246l-1.52 3.783c-.295-.15-.618-.292-.945-.292-2.172 0-4.043 3.513-4.896 4.934l-.754 3.806h-4.316l2.416-12.207h4.265l-1.268 5.156zM156.049 17.3h3.774l.267 7.746h.056l3.783-7.746h3.605l.33 7.767h.037l3.827-7.767h3.015l-6.05 12.206h-4.114l-.303-7.358h-.046l-3.6 7.358h-4.113zM182.135 19.938c-.403-.224-.899-.403-1.383-.403-2.595 0-3.596 4.745-3.596 5.899 0 .307.108.695.49.695 1.19 0 3.296-3.557 4.248-4.95l.241-1.241zm-.595 4.41h-.273c-.898 2.07-3.171 5.428-5.652 5.428-1.74 0-2.764-1.593-2.764-3.22 0-3.938 3.843-9.46 8.047-9.46 1.012 0 1.702.204 2.027.204h4.03l-2.41 12.207h-4.284l1.28-5.16zM190.732 29.506l-2.307-12.207h4.415l1.337 7.144 4.792-7.144h3.26l-11.156 16.548h-4.443zM210.849 20.026c-.87-.311-1.781-.563-2.703-.563-.713 0-1.691.222-1.691 1.127 0 1.44 3.724 2.477 3.724 5.13 0 1.626-1.07 4.056-5.656 4.056-1.514 0-2.927-.295-4.418-.676l.55-2.857c1.081.472 2.705 1.103 3.868 1.103.58 0 1.34-.381 1.34-1.17 0-1.674-3.457-2.701-3.457-5.367 0-1.446.984-3.78 5.577-3.78 1.127 0 2.338.226 3.379.359l-.513 2.638z"/>
    </g>
</svg>
